# xmcd CD database file
#
# Track frame offsets:
#	150
#	14175
#	35405
#	47262
#	63632
#	73375
#	83792
#	100465
#	121587
#	131755
#	142697
#	153025
#	166505
#	176875
#	195187
#	209657
#
# Disc length: 3022 seconds
#
# Revision: 1
# Processed by: cddbd v1.5.1PL2 Copyright (c) Steve Scherf et al.
# Submitted via: CDex 1.70beta1
#
DISCID=d80bcc10
DTITLE=Various Artist - THE BEST OF BOSSA NOVA
DYEAR=1997
DGENRE=Jazz
TTITLE0=Coisa Mais Linda
TTITLE1=Aguas De Marco
TTITLE2=Chega De Saudade
TTITLE3=Samba Do Aviao
TTITLE4=Domingo Em Copacabana
TTITLE5=Barquinho
TTITLE6=Garota De Ipanema - Ela E Carioca
TTITLE7=Corcovado - Insensatez
TTITLE8=Chara
TTITLE9=Cartao De Visita
TTITLE10=Voce E Eu
TTITLE11=Maria Ninguem
TTITLE12=Alo Saudade
TTITLE13=Retrato En Branco E Prieto
TTITLE14=Reza
TTITLE15=Fotografia
EXTD=YEAR: 1997
EXTT0=
EXTT1=
EXTT2=
EXTT3=
EXTT4=
EXTT5=
EXTT6=
EXTT7=
EXTT8=
EXTT9=
EXTT10=
EXTT11=
EXTT12=
EXTT13=
EXTT14=
EXTT15=
PLAYORDER=
